<svg xmlns="http://www.w3.org/2000/svg" enable-background="new 0 0 36 36" viewBox="0 0 36 36"><path fill="#efefef" d="m34.904 20.355c-3.782-5.791-3.38-11.727-5.203-14.518s-7.256-7.603-20.093.782-9.572 17.5-7.566 20.569c9.388 14.372 39.561 3.423 32.862-6.833z"/><path fill="#a4afc1" d="M27.913 11.554c-.827 0-1.5-.673-1.5-1.5s.673-1.5 1.5-1.5 1.5.673 1.5 1.5-.673 1.5-1.5 1.5zm0-2c-.276 0-.5.224-.5.5s.224.5.5.5.5-.224.5-.5-.224-.5-.5-.5zM4.704.929h1v2h-1zM4.704 6.679h1v2h-1zM1.204 4.179h2v1h-2zM6.954 4.179h2v1h-2z"/><path fill="#f3f3f1" d="M20.249 14.097c.068.029.146.049.214.078v.01zM27.17 17.496l-1.258 3.703c-.261.767-1.09 1.176-1.854.915-.763-.262-1.171-1.096-.91-1.863l1.258-3.703c.261-.767 1.09-1.176 1.854-.915.763.262 1.17 1.096.91 1.863z"/><path fill="#2fdf84" d="m10.922 16.533h6.591c.595 0 1.125.276 1.481.704l.008.001c.204-.225.35-.479.448-.773l.798-2.367 1.402-4.108c.088-.264.127-.528.127-.792 0-1.017-.633-1.966-1.645-2.318-1.275-.43-2.658.254-3.096 1.526l-1.85 5.458-1.674-5.39c-.321-1.047-1.295-1.722-2.327-1.722-.243 0-.487.029-.72.108-1.285.409-2.006 1.779-1.606 3.07l2.035 6.534c.009.02.019.049.028.069z"/><path fill="#f3f3f1" d="m23.014 12.727c-1.022-.352-2.132.196-2.473 1.213l-.078.235-1.188 3.492-.73 2.475c0 .812.516 1.555 1.324 1.839 1.012.352 2.122-.196 2.463-1.223l1.382-4.069.506-1.477c.068-.215.107-.43.107-.636.001-.821-.505-1.575-1.313-1.849z"/><path fill="#f3f3f1" d="m24.058 22.114c-.631-.216-1.012-.824-.98-1.461l-.59-.353-.156.458c-.341 1.027-1.451 1.575-2.463 1.223-.808-.284-1.324-1.027-1.324-1.839l.729-2.472c-.31-.669-.982-1.137-1.761-1.137h-7.788v4.891c0 4.324 3.485 7.826 7.788 7.826 4.117 0 7.484-3.207 7.768-7.274-.356.215-.798.283-1.223.138z"/><path fill="#d5dbe1" d="M20.249 14.097c.068.029.146.049.214.078v.01zM22.499 14.097c.068.029.146.049.214.078v.01zM25.398 20.251l1.258-3.703c.058-.172.149-.322.257-.455-.167-.204-.386-.368-.653-.46-.763-.262-1.593.148-1.854.915l-1.258 3.703c-.261.767.147 1.601.91 1.863.592.203 1.221-.001 1.597-.46-.31-.38-.427-.904-.257-1.403z"/><path fill="#00b871" d="M11.109 9.93c-.355-1.148.178-2.354 1.204-2.897-.345-.181-.731-.282-1.127-.282-.243 0-.487.029-.72.108-1.286.41-2.007 1.78-1.607 3.071l2.035 6.534c.01.02.019.049.029.068h2.25c-.01-.02-.019-.049-.029-.068zM17.436 13.862l1.85-5.458c.213-.618.652-1.094 1.19-1.374-.109-.058-.224-.11-.345-.152-1.275-.43-2.658.254-3.096 1.526l-.676 1.994zM17.513 16.533c.595 0 1.125.276 1.481.704l.008.001c.188-.206.321-.441.417-.704h-1.906z"/><path fill="#d5dbe1" d="M20.795 20.142l.73-2.475 1.188-3.492.078-.235c.134-.401.391-.725.712-.954-.148-.105-.308-.197-.489-.259-1.022-.352-2.132.196-2.473 1.213l-.078.235-1.188 3.492-.73 2.475c0 .812.516 1.555 1.324 1.839.615.214 1.264.092 1.756-.264-.515-.365-.83-.946-.83-1.575zM11.975 21.424v-4.891h-2.25v4.891c0 4.324 3.485 7.826 7.788 7.826.384 0 .758-.037 1.127-.09-3.769-.549-6.665-3.797-6.665-7.736z"/><path fill="#d5dbe1" d="m22.119 21.981c.515.179 1.054.123 1.506-.108-.365-.292-.57-.747-.547-1.22l-.59-.353-.156.458c-.134.403-.388.729-.707.959.15.106.312.2.494.264z"/><path d="M20.166 14.864c-.104-.035-.161-.055-.214-.078l.261-.604-.5.003.501-.006.331-.771c.106.036.162.056.215.079.275.119.453.389.453.688l-.752.005zM17.513 29.999c-4.708 0-8.538-3.847-8.538-8.575v-4.891h1.5v4.891c0 3.901 3.157 7.075 7.038 7.075 3.681 0 6.765-2.89 7.021-6.579l1.496.104c-.31 4.472-4.051 7.975-8.517 7.975z"/><path d="m17.513 21.195h-3.408v-1.5h3.408c.32 0 .616-.124.833-.349.24-.235.364-.534.364-.857 0-.666-.537-1.207-1.197-1.207h-7.788v-1.5h7.788c1.487 0 2.697 1.214 2.697 2.707 0 .731-.284 1.411-.801 1.916-.487.504-1.166.79-1.896.79z"/><path d="M17.776 23.869h-1.5v-.724c0-1.075-.869-1.95-1.938-1.95h-.233v-1.5h.233c1.896 0 3.438 1.548 3.438 3.45zM10.251 16.868l-.04-.091-2.069-6.624c-.518-1.677.422-3.475 2.094-4.009.285-.095.599-.143.949-.143 1.385 0 2.637.926 3.044 2.251l1.674 5.388-1.433.445-1.674-5.39c-.216-.704-.878-1.194-1.611-1.194-.186 0-.344.022-.482.069-.902.288-1.404 1.246-1.128 2.138l2.023 6.499c.003.008.006.016.008.02l-.002.001.004.014-.098.031z"/><path d="m19.558 17.741-1.11-1.009c.133-.146.225-.306.292-.505l2.202-6.481c.058-.173.086-.355.086-.55 0-.726-.459-1.373-1.142-1.61-.875-.296-1.837.18-2.141 1.062l-1.848 5.455-1.421-.481 1.85-5.458c.573-1.662 2.389-2.555 4.046-1.996 1.292.449 2.156 1.666 2.156 3.029 0 .353-.055.698-.165 1.028l-2.202 6.48c-.131.394-.329.734-.603 1.036z"/><path d="m20.5 22.839c-.295 0-.591-.05-.877-.149-1.094-.384-1.828-1.408-1.828-2.548h1.5c0 .504.331.959.823 1.132.295.102.615.082.899-.058.287-.142.501-.388.603-.694l1.891-5.553c.042-.134.066-.271.066-.393 0-.518-.323-.975-.805-1.138-.308-.107-.635-.086-.921.056-.286.141-.499.384-.6.685l-1.267 3.73-1.42-.483 1.264-3.722c.229-.684.711-1.236 1.359-1.555.649-.32 1.384-.367 2.069-.13 1.087.368 1.82 1.396 1.82 2.558 0 .276-.048.566-.142.863l-1.892 5.56c-.227.685-.711 1.242-1.362 1.562-.374.184-.776.277-1.18.277z"/><path d="m24.532 22.943c-.241 0-.482-.04-.717-.12-1.152-.395-1.77-1.657-1.377-2.813l1.258-3.703c.191-.562.589-1.016 1.121-1.277.531-.259 1.128-.296 1.686-.106 1.152.395 1.77 1.657 1.377 2.813l-1.258 3.703c-.19.562-.588 1.015-1.12 1.276-.307.151-.638.227-.97.227zm1.255-6.638c-.106 0-.212.024-.31.072-.171.084-.3.23-.362.413l-1.258 3.703c-.127.375.071.785.443.912.179.062.371.049.54-.034.171-.084.299-.23.36-.412l1.259-3.704c.127-.375-.072-.784-.443-.912-.075-.026-.152-.038-.229-.038z"/></svg>