
<svg id="svg" class="w-full flex-auto z-10" style="touch-action: none" xmlns="http://www.w3.org/2000/svg"><path fill="#000" d="M 649.00 261.00 Q 649.00 261.00 655.80 265.95 662.60 270.91 693.63 294.22 724.65 317.53 770.66 353.38 816.67 389.23 872.85 430.32 929.04 471.41 977.37 504.45 1025.70 537.49 1047.76 553.09 1069.82 568.68 1077.62 575.34 1085.42 581.99 1087.29 587.85 1089.16 593.71 1084.00 599.28 1078.85 604.86 1061.53 606.65 1044.21 608.44 1014.98 600.82 985.74 593.20 967.37 582.78 949.00 572.37 936.32 558.20 923.64 544.04 919.46 525.07 915.28 506.10 918.07 467.60 920.86 429.11 932.30 384.39 943.75 339.66 961.87 297.82 980.00 255.99 992.84 234.92 1005.69 213.86 1013.69 204.38 1021.69 194.90 1016.25 205.95 1010.80 217.00 998.12 237.73 985.45 258.46 967.50 299.79 949.55 341.13 938.18 385.33 926.82 429.54 923.88 467.02 920.94 504.51 924.59 522.44 928.24 540.38 940.14 553.84 952.04 567.30 969.73 577.38 987.41 587.47 1015.41 595.10 1043.40 602.73 1059.26 601.76 1075.11 600.80 1079.64 596.87 1084.16 592.93 1082.76 589.25 1081.36 585.56 1073.84 579.55 1066.31 573.54 1044.31 557.99 1022.31 542.43 973.90 509.35 925.50 476.26 869.24 435.11 812.97 393.96 766.94 358.09 720.91 322.22 691.28 297.16 661.65 272.09 655.33 266.55 649.00 261.00 649.00 261.00 649.00 261.00 649.05 261.05 649.10 261.10 649.05 261.05 Z"></path><path fill="#000" d="M 1060.00 426.00 Q 1060.00 426.00 1060.38 426.66 1060.76 427.31 1061.96 430.52 1063.17 433.72 1064.41 438.81 1065.66 443.90 1070.05 449.08 1074.44 454.27 1079.87 457.94 1085.31 461.62 1090.10 463.39 1094.88 465.16 1099.41 465.86 1103.93 466.55 1109.19 465.76 1114.45 464.97 1119.93 461.06 1125.41 457.15 1128.16 452.77 1130.92 448.39 1131.96 442.99 1133.00 437.59 1132.63 432.39 1132.26 427.19 1130.81 422.70 1129.35 418.20 1129.40 417.28 1129.45 416.35 1130.03 415.63 1130.61 414.91 1131.51 414.67 1132.40 414.43 1133.27 414.76 1134.13 415.09 1134.25 416.01 1134.36 416.92 1134.97 420.67 1135.59 424.41 1136.91 429.14 1138.24 433.86 1140.87 440.90 1143.51 447.93 1147.12 453.83 1150.74 459.74 1152.31 460.63 1153.89 461.52 1154.15 458.02 1154.42 454.52 1154.64 451.20 1154.85 447.88 1157.17 444.05 1159.49 440.22 1160.15 444.27 1160.82 448.32 1160.54 452.05 1160.27 455.78 1158.00 461.05 1155.73 466.32 1153.14 467.03 1150.56 467.74 1148.15 465.37 1145.74 463.00 1141.83 456.51 1137.91 450.01 1135.18 442.71 1132.44 435.41 1131.04 430.04 1129.64 424.66 1129.50 421.25 1129.35 417.83 1129.40 417.09 1129.45 416.35 1130.03 415.63 1130.61 414.91 1131.51 414.67 1132.40 414.43 1133.27 414.76 1134.13 415.09 1134.64 415.86 1135.15 416.64 1136.67 421.71 1138.20 426.77 1138.52 432.76 1138.84 438.75 1137.38 445.12 1135.92 451.49 1132.43 456.69 1128.94 461.88 1122.19 466.26 1115.43 470.65 1109.28 471.54 1103.12 472.43 1097.97 471.60 1092.82 470.77 1087.42 468.68 1082.02 466.59 1075.94 462.32 1069.87 458.06 1064.96 451.72 1060.06 445.39 1058.63 439.66 1057.21 433.93 1058.22 430.62 1059.24 427.31 1059.62 426.66 1060.00 426.00 1060.00 426.00 1060.00 426.00 1060.05 426.05 1060.10 426.10 1060.05 426.05 Z"></path><path fill="#000" d="M 1183.00 437.00 Q 1183.00 437.00 1183.09 436.71 1183.18 436.43 1184.48 434.95 1185.78 433.46 1190.30 430.75 1194.82 428.04 1200.40 424.91 1205.99 421.77 1210.14 418.76 1214.29 415.75 1216.35 413.32 1218.40 410.89 1218.95 407.91 1219.51 404.93 1218.97 404.28 1218.44 403.64 1216.10 406.51 1213.77 409.38 1212.98 412.21 1212.19 415.04 1212.35 420.25 1212.52 425.47 1215.18 430.39 1217.84 435.32 1221.88 437.07 1225.92 438.82 1230.70 439.14 1235.48 439.46 1239.93 439.04 1244.38 438.63 1246.53 437.48 1248.67 436.34 1251.30 435.31 1253.92 434.28 1254.05 436.26 1254.19 438.25 1252.72 439.94 1251.25 441.64 1248.25 443.05 1245.24 444.47 1240.12 444.94 1234.99 445.41 1229.23 444.79 1223.48 444.17 1218.36 441.40 1213.24 438.63 1210.02 432.24 1206.79 425.85 1206.68 419.53 1206.56 413.22 1207.65 409.70 1208.74 406.17 1211.30 402.50 1213.87 398.83 1216.45 396.94 1219.02 395.06 1220.89 395.25 1222.75 395.44 1223.75 396.62 1224.75 397.81 1225.19 399.75 1225.63 401.68 1225.49 403.96 1225.35 406.24 1224.19 410.26 1223.04 414.28 1220.49 417.36 1217.94 420.44 1213.44 423.71 1208.94 426.98 1203.16 430.22 1197.38 433.46 1192.46 435.27 1187.53 437.07 1185.55 437.13 1183.57 437.19 1183.28 437.10 1183.00 437.00 1183.00 437.00 1183.00 437.00 1183.05 437.05 1183.10 437.10 1183.05 437.05 Z"></path><path fill="#30bd20" d="M 1315.00 324.00 Q 1315.00 324.00 1315.47 323.29 1315.94 322.59 1318.07 320.27 1320.20 317.95 1323.49 317.13 1326.77 316.32 1333.85 315.91 1340.92 315.51 1353.67 316.17 1366.42 316.84 1373.41 318.84 1380.41 320.84 1384.72 322.71 1389.03 324.59 1391.03 325.92 1393.03 327.25 1394.28 328.52 1395.53 329.79 1395.93 331.33 1396.33 332.86 1395.31 334.79 1394.30 336.73 1391.13 338.61 1387.96 340.48 1383.39 341.95 1378.82 343.43 1373.83 344.47 1368.84 345.52 1366.35 345.74 1363.87 345.97 1364.12 345.72 1364.37 345.47 1370.53 347.75 1376.68 350.03 1385.36 352.78 1394.05 355.53 1403.15 358.19 1412.26 360.85 1419.67 364.14 1427.07 367.42 1431.83 371.88 1436.58 376.35 1436.04 380.73 1435.50 385.10 1430.65 387.60 1425.79 390.10 1415.14 391.68 1404.49 393.27 1390.73 393.92 1376.96 394.57 1366.20 394.71 1355.44 394.84 1350.70 393.42 1345.97 391.99 1350.66 390.47 1355.35 388.95 1366.02 388.76 1376.69 388.58 1390.15 387.96 1403.61 387.34 1413.37 386.10 1423.13 384.85 1427.16 383.51 1431.19 382.17 1431.67 380.21 1432.16 378.24 1428.27 375.34 1424.38 372.44 1417.47 369.52 1410.55 366.59 1401.39 363.92 1392.22 361.24 1383.31 358.41 1374.40 355.57 1367.91 352.75 1361.43 349.93 1360.69 346.76 1359.96 343.59 1361.24 342.28 1362.53 340.97 1365.07 340.31 1367.60 339.65 1372.29 338.69 1376.97 337.74 1381.08 336.46 1385.19 335.18 1386.88 333.79 1388.57 332.40 1387.53 331.20 1386.50 330.01 1382.59 328.29 1378.68 326.57 1372.30 324.68 1365.93 322.78 1353.69 322.13 1341.45 321.47 1334.84 321.80 1328.23 322.12 1325.53 322.71 1322.83 323.30 1319.76 323.61 1316.68 323.91 1315.84 323.96 1315.00 324.00 1315.00 324.00 1315.00 324.00 1315.05 324.05 1315.10 324.10 1315.05 324.05 Z"></path><path fill="#000000" d="M 1274.00 535.00 Q 1274.00 535.00 1275.64 536.36 1277.27 537.73 1284.03 543.52 1290.80 549.30 1297.25 555.14 1303.70 560.99 1306.65 563.88 1309.61 566.78 1311.25 569.13 1312.89 571.47 1313.06 571.90 1313.23 572.33 1313.12 572.78 1313.00 573.23 1312.65 573.53 1312.29 573.82 1311.83 573.85 1311.36 573.88 1311.13 573.95 1310.90 574.03 1309.93 574.25 1308.97 574.47 1307.96 574.45 1306.95 574.42 1306.15 574.08 1305.35 573.73 1304.51 572.71 1303.66 571.69 1302.87 570.53 1302.08 569.37 1301.38 568.74 1300.69 568.12 1299.87 567.58 1299.06 567.03 1298.95 565.38 1298.84 563.73 1300.32 562.17 1301.80 560.60 1303.50 559.58 1305.21 558.56 1306.87 557.43 1308.53 556.29 1309.72 555.71 1310.91 555.14 1312.79 555.57 1314.66 556.01 1313.51 556.75 1312.35 557.50 1311.27 558.13 1310.19 558.76 1308.44 559.96 1306.69 561.16 1305.25 561.97 1303.81 562.77 1302.45 564.02 1301.10 565.28 1301.22 565.50 1301.35 565.72 1302.13 566.24 1302.90 566.76 1303.65 567.27 1304.41 567.78 1305.27 568.89 1306.13 570.00 1307.00 570.64 1307.87 571.29 1308.71 571.37 1309.55 571.45 1310.99 571.78 1312.42 572.11 1312.82 572.22 1313.23 572.33 1313.12 572.78 1313.00 573.23 1312.65 573.53 1312.29 573.82 1311.83 573.85 1311.36 573.88 1310.97 573.64 1310.58 573.39 1309.03 571.14 1307.48 568.89 1304.58 566.05 1301.68 563.20 1295.19 557.33 1288.70 551.45 1282.72 544.86 1276.73 538.27 1275.36 536.64 1274.00 535.00 1274.00 535.00 1274.00 535.00 1274.05 535.05 1274.10 535.10 1274.05 535.05 Z"></path><path fill="#ed153d" d="M 1300.00 539.00 Q 1300.00 539.00 1299.90 538.81 1299.80 538.63 1299.47 537.92 1299.14 537.22 1299.04 536.42 1298.93 535.63 1299.26 534.33 1299.58 533.03 1300.66 532.56 1301.75 532.08 1301.63 533.21 1301.52 534.34 1301.39 535.17 1301.27 536.00 1301.07 536.61 1300.86 537.22 1300.53 537.92 1300.20 538.63 1300.10 538.81 1300.00 539.00 1300.00 539.00 1300.00 539.00 1300.05 539.05 1300.10 539.10 1300.05 539.05 Z"></path><path fill="#ed153d" d="M 1304.00 540.00 Q 1304.00 540.00 1303.87 539.71 1303.74 539.42 1303.42 538.31 1303.11 537.20 1303.34 536.18 1303.57 535.15 1304.66 533.24 1305.75 531.33 1306.06 533.19 1306.37 535.05 1305.87 536.16 1305.37 537.27 1304.82 538.36 1304.26 539.45 1304.13 539.73 1304.00 540.00 1304.00 540.00 1304.00 540.00 1304.05 540.05 1304.10 540.10 1304.05 540.05 Z"></path></svg>